<svg width="26" height="24" viewBox="0 0 26 24" fill="none" xmlns="http://www.w3.org/2000/svg">
<path d="M5.7887 24V7.80724H0.322503V24H5.7887ZM3.05631 5.59507C4.96247 5.59507 6.14896 4.35165 6.14896 2.7978C6.11345 1.2089 4.96254 0 3.09248 0C1.22271 0 0 1.20893 0 2.7978C0 4.35172 1.1862 5.59507 3.02062 5.59507H3.05614H3.05631ZM8.81422 24H14.2804V14.9572C14.2804 14.4732 14.3159 13.9898 14.4603 13.6438C14.8554 12.6769 15.7549 11.6754 17.2648 11.6754C19.2428 11.6754 20.0341 13.1603 20.0341 15.3371V23.9999H25.5V14.7151C25.5 9.74133 22.8033 7.42708 19.2068 7.42708C16.258 7.42708 14.9633 9.05001 14.2441 10.1554H14.2805V7.8069H8.81435C8.88608 9.32634 8.81435 23.9997 8.81435 23.9997L8.81422 24Z" fill="black"/>
</svg>
