<svg width="31" height="24" viewBox="0 0 31 24" fill="none" xmlns="http://www.w3.org/2000/svg">
<path d="M27.7591 2.82029L30.1669 0.50671V0H21.8278L15.8848 14.8635L9.12471 0H0.381015V0.50671L3.19345 3.90835C3.46841 4.15974 3.60982 4.52897 3.57447 4.8982V18.2651C3.66088 18.7483 3.50769 19.2393 3.16989 19.5889L0 23.4501V23.9489H8.97938V23.4422L5.81342 19.5928C5.64379 19.4206 5.5162 19.2115 5.44057 18.9819C5.36495 18.7523 5.34333 18.5084 5.37741 18.2691V6.70507L13.2609 23.9568H14.1761L20.9558 6.70507V20.4491C20.9558 20.8105 20.9558 20.8851 20.7201 21.1247L18.2809 23.4933V24H30.1119V23.4933L27.7591 21.1797C27.5548 21.0226 27.4488 20.7594 27.492 20.5041V3.49591C27.4716 3.36968 27.4857 3.24031 27.5327 3.12141C27.5797 3.00251 27.6579 2.89849 27.7591 2.82029Z" fill="black"/>
</svg>
