<svg xmlns="http://www.w3.org/2000/svg" viewBox="0 0 800 800"><title>19-07-05-100days-logo</title><g id="ac9c0328-58b8-475b-bbe4-6e91f854db0f" data-name="Layer 4"><path d="M322.63,529.93V355.79H214.52V326.51Q291.73,305,330.36,251T386,100h32.43V288H585.48v67.8H418.39V555.4l0,15.35C376.27,581.83,346.65,643.34,338,700H322.73V592.73Z" fill="#fff"/><circle cx="400" cy="400" r="360" fill="none" stroke="#fff" stroke-miterlimit="10" stroke-width="12"/><path d="M400,24A376.11,376.11,0,0,1,546.35,746.46,376.1,376.1,0,0,1,253.65,53.54,373.63,373.63,0,0,1,400,24m0-24C179.09,0,0,179.09,0,400S179.09,800,400,800,800,620.91,800,400,620.91,0,400,0Z" fill="#fff"/></g></svg>